<?xml version="1.0" encoding="utf-8"?><svg version="1.1" id="Layer_1" xmlns="http://www.w3.org/2000/svg" xmlns:xlink="http://www.w3.org/1999/xlink" x="0px" y="0px" viewBox="0 0 122.88 122.87" style="enable-background:new 0 0 122.88 122.87" xml:space="preserve"><style type="text/css"><![CDATA[
	.st0{fill:#39B54A;}
	.st1{fill:#3C3C3C;}
]]></style><g><path class="st0" d="M32.82,51.34l14.99-0.2l1.12,0.29c3.03,1.74,5.88,3.74,8.54,5.99c1.92,1.63,3.76,3.4,5.5,5.32 c5.38-8.65,11.11-16.6,17.16-23.9c6.63-8,13.66-15.27,21.05-21.9l1.46-0.56h16.36l-3.3,3.66c-10.13,11.26-19.33,22.9-27.64,34.9 C79.74,66.97,72.31,79.37,65.7,92.13l-2.06,3.97l-1.89-4.04c-3.49-7.48-7.66-14.35-12.64-20.49c-4.98-6.14-10.77-11.59-17.52-16.22 L32.82,51.34L32.82,51.34L32.82,51.34z"/><path class="st1" d="M61.44,0c9.53,0,18.55,2.17,26.61,6.04c-3.3,2.61-6.36,5.11-9.21,7.53c-5.43-1.97-11.28-3.05-17.39-3.05 c-14.06,0-26.79,5.7-36,14.92c-9.21,9.22-14.92,21.94-14.92,36c0,14.06,5.7,26.78,14.92,36s21.94,14.92,36,14.92 c14.06,0,26.79-5.7,36-14.92c9.22-9.22,14.91-21.94,14.91-36c0-3.34-0.32-6.62-0.94-9.78c2.64-3.44,5.35-6.88,8.11-10.28 c2.17,6.28,3.35,13.04,3.35,20.06c0,16.96-6.88,32.33-17.99,43.44c-11.12,11.12-26.48,18-43.44,18c-16.96,0-32.32-6.88-43.44-18 C6.88,93.76,0,78.4,0,61.44C0,44.47,6.88,29.11,17.99,18C29.11,6.88,44.47,0,61.44,0L61.44,0L61.44,0z"/></g></svg>